<svg width="219" height="30" viewBox="0 0 219 30" fill="none" xmlns="http://www.w3.org/2000/svg">
<g clipPath="url(#clip0_326_166)">
<g opacity="0.3">
<path d="M11.9014 24.0092H0.886692L3.46904 17.2928C1.28588 15.4393 0 12.6894 0 9.79722C0 4.39701 4.3628 0 9.72886 0C15.0949 0 19.4471 4.38634 19.4577 9.77588V14.5998H17.5395V15.9303C17.5395 17.9473 15.9074 19.5909 13.9044 19.5909H13.6607L11.9014 24.0092ZM3.60328 22.1345H10.6438L12.4031 17.7161H13.9079C14.8865 17.7161 15.6813 16.9157 15.6813 15.9303V12.725H17.5995V9.77588C17.5925 5.418 14.0634 1.87122 9.73239 1.87122C5.4014 1.87122 1.86523 5.42512 1.86523 9.79367C1.86523 12.3301 3.08752 14.7314 5.13291 16.2184L5.71578 16.6418L3.60682 22.1309L3.60328 22.1345Z" fill="#0C181D"/>
<path d="M11.9862 8.73002H10.831C10.5272 8.73002 10.2764 8.481 10.2764 8.1715V4.10889L7.00167 10.1245C6.76498 10.4945 7.02639 10.9854 7.46444 10.9854H8.61961C8.92342 10.9854 9.17424 11.2345 9.17424 11.544V15.6066L12.449 9.59092C12.6857 9.22095 12.4242 8.73002 11.9862 8.73002Z" fill="#0C181D"/>
<path d="M2.23616 24.7954H2.22557C2.06661 25.2294 1.99594 25.6741 1.99241 26.1117C1.98534 27.6912 2.9427 29.1818 4.50058 29.7616C6.36581 30.4518 8.42178 29.5944 9.27314 27.8335C9.32966 27.7161 9.38265 27.5951 9.42858 27.4671L10.4142 24.7954H2.23263H2.23616Z" fill="#0C181D"/>
</g>
<g opacity="0.3">
<path d="M33.396 8.77223C33.8094 8.59791 34.2827 8.51253 34.8162 8.51253C35.7452 8.51253 36.5719 8.76867 37.2961 9.28094C38.0202 9.79321 38.5607 10.4976 38.9211 11.4012L42.1746 9.91773C41.8143 8.89674 41.2738 8.0216 40.5602 7.29233C39.8466 6.56305 38.9988 6.00097 38.0167 5.60254C37.0346 5.2041 35.9678 5.00488 34.8162 5.00488C33.5091 5.00488 32.3504 5.24679 31.3436 5.73416C30.3368 6.22153 29.5525 6.89389 28.9944 7.76191C28.4362 8.62993 28.1536 9.63313 28.1536 10.7786C28.1536 12.0771 28.5422 13.1941 29.3159 14.1191C30.0895 15.0476 31.2447 15.7626 32.7743 16.2642L36.5436 17.5129C37.13 17.705 37.5575 17.9576 37.833 18.2813C38.1086 18.6015 38.2463 18.9892 38.2463 19.4375C38.2463 19.8537 38.1333 20.213 37.9107 20.5154C37.6882 20.8178 37.3773 21.0561 36.9817 21.2304C36.586 21.4047 36.1126 21.4901 35.5615 21.4901C34.53 21.4901 33.5868 21.1877 32.7354 20.5794C31.8841 19.9711 31.2164 19.1422 30.736 18.0821L27.4577 19.562C27.8357 20.6719 28.408 21.6324 29.1746 22.4471C29.9411 23.2617 30.8526 23.8914 31.9123 24.3325C32.9721 24.7736 34.1026 24.9942 35.3072 24.9942C36.6672 24.9942 37.8577 24.7487 38.8822 24.2543C39.9067 23.7598 40.7121 23.0767 41.295 22.2016C41.8814 21.3265 42.1711 20.3268 42.1711 19.1991C42.1711 17.9007 41.7896 16.7978 41.023 15.8978C40.2564 14.9978 39.1012 14.2934 37.5504 13.7918L33.8588 12.5965C33.2724 12.4044 32.8344 12.1411 32.5411 11.8032C32.2479 11.4652 32.1031 11.0703 32.1031 10.6185C32.1031 10.2023 32.2161 9.8359 32.4387 9.51218C32.6613 9.192 32.9792 8.94298 33.3925 8.77223H33.396Z" fill="#2D3748"/>
<path d="M50.0206 7.2643H46.1488V8.30308C46.1488 9.03235 45.9545 9.57664 45.5695 9.9395C45.1809 10.3024 44.6263 10.4838 43.9056 10.4838H43.7749V13.8634H46.1488V19.5553C46.1488 21.2202 46.6187 22.5151 47.5548 23.4436C48.4945 24.3721 49.8157 24.8346 51.5184 24.8346C51.8116 24.8346 52.1225 24.8168 52.4475 24.7812C52.776 24.7456 53.0657 24.71 53.3236 24.678V21.3767C53.1505 21.3945 52.988 21.4123 52.8325 21.4301C52.6771 21.4479 52.5393 21.455 52.4192 21.455C51.8858 21.455 51.4372 21.3767 51.0768 21.2202C50.7165 21.0637 50.448 20.8253 50.2749 20.5051C50.1018 20.185 50.017 19.783 50.017 19.2956V13.8634H53.32V10.4838H50.017V7.26074L50.0206 7.2643Z" fill="#2D3748"/>
<path d="M60.4913 10.9709C59.9472 11.2946 59.5233 11.8425 59.2124 12.6109V10.4907H55.5986V24.6849H59.4703V17.0399C59.4703 15.9834 59.7635 15.1651 60.3464 14.5817C60.9328 14.0019 61.6959 13.7101 62.6426 13.7101H63.8543V10.3306H63.0277C62.0456 10.3306 61.1978 10.544 60.4842 10.9674L60.4913 10.9709Z" fill="#2D3748"/>
<path d="M76.3563 11.1382C75.2188 10.4979 73.9541 10.1777 72.5622 10.1777C71.1704 10.1777 69.8986 10.4979 68.7541 11.1382C67.6095 11.7786 66.6981 12.6537 66.0163 13.7636C65.3345 14.8736 64.9954 16.1471 64.9954 17.5844C64.9954 19.0216 65.3345 20.2738 66.0163 21.3944C66.6946 22.5114 67.6095 23.3937 68.7541 24.034C69.8986 24.6744 71.1669 24.9945 72.5622 24.9945C73.9576 24.9945 75.2223 24.6744 76.3563 24.034C77.4938 23.3937 78.4017 22.5114 79.0799 21.3944C79.7582 20.2773 80.1009 19.0073 80.1009 17.5844C80.1009 16.1614 79.7617 14.8736 79.0799 13.7636C78.3981 12.6537 77.4938 11.7786 76.3563 11.1382ZM75.6462 19.6157C75.3459 20.2062 74.9326 20.6651 74.4063 20.9924C73.8799 21.3232 73.2652 21.4869 72.5587 21.4869C71.8522 21.4869 71.234 21.3232 70.7005 20.9924C70.1671 20.6651 69.7503 20.2026 69.45 19.6157C69.1497 19.0251 68.9978 18.3492 68.9978 17.5879C68.9978 16.8266 69.1497 16.1543 69.45 15.5744C69.7503 14.9945 70.1671 14.5356 70.7005 14.1977C71.234 13.8597 71.8522 13.6925 72.5587 13.6925C73.2652 13.6925 73.8799 13.8633 74.4063 14.1977C74.9326 14.5356 75.3424 14.9945 75.6462 15.5744C75.9465 16.1543 76.0984 16.8266 76.0984 17.5879C76.0984 18.3492 75.9465 19.0251 75.6462 19.6157Z" fill="#2D3748"/>
<path d="M101.282 10.8537C100.498 10.4019 99.6009 10.1777 98.5835 10.1777C97.4319 10.1777 96.4216 10.4552 95.5631 11.0102C95.0474 11.341 94.6058 11.7857 94.2313 12.3335C93.9381 11.8462 93.5389 11.4228 93.0196 11.0742C92.133 10.4766 91.105 10.1777 89.9357 10.1777C88.8335 10.1777 87.8867 10.4374 87.0954 10.9568C86.6185 11.2699 86.2511 11.6897 85.9862 12.209V10.4872H82.3723V24.6815H86.2441V16.389C86.2441 15.8341 86.343 15.3574 86.5408 14.959C86.7386 14.5605 87.0212 14.2475 87.3922 14.0233C87.7631 13.7992 88.1976 13.6854 88.6957 13.6854C89.1938 13.6854 89.6495 13.7992 90.0134 14.0233C90.3737 14.2475 90.6528 14.5605 90.8541 14.959C91.052 15.3574 91.1509 15.8341 91.1509 16.389V24.6815H95.0226V16.389C95.0226 15.8341 95.1216 15.3574 95.3194 14.959C95.5172 14.5605 95.7998 14.2475 96.1707 14.0233C96.5417 13.7992 96.9762 13.6854 97.4743 13.6854C97.9724 13.6854 98.4281 13.7992 98.7919 14.0233C99.1523 14.2475 99.4314 14.5605 99.6327 14.959C99.8305 15.3574 99.9294 15.8341 99.9294 16.389V24.6815H103.801V15.5566C103.801 14.4823 103.579 13.5431 103.13 12.7355C102.681 11.928 102.067 11.3019 101.282 10.8501V10.8537Z" fill="#2D3748"/>
<path d="M115.777 17.0151H120.913V17.0685C120.913 17.9685 120.677 18.7405 120.203 19.3808C119.73 20.0212 119.112 20.5121 118.345 20.8501C117.578 21.188 116.755 21.3552 115.879 21.3552C114.742 21.3552 113.742 21.0884 112.873 20.5477C112.004 20.0105 111.319 19.2634 110.821 18.31C110.322 17.3566 110.072 16.2467 110.072 14.9838C110.072 13.7209 110.308 12.6146 110.782 11.6683C111.255 10.7255 111.923 9.98204 112.781 9.44486C113.643 8.90769 114.639 8.63732 115.777 8.63732C116.914 8.63732 117.942 8.94682 118.758 9.5587C119.574 10.1741 120.147 10.9497 120.475 11.8853L124.011 10.1706C123.683 9.21719 123.135 8.34917 122.358 7.57009C121.584 6.791 120.641 6.16489 119.532 5.69887C118.423 5.23284 117.169 4.99805 115.777 4.99805C114.385 4.99805 113.096 5.24351 111.916 5.738C110.736 6.23248 109.708 6.92619 108.832 7.81911C107.956 8.71203 107.274 9.76859 106.793 10.9924C106.313 12.2126 106.069 13.543 106.069 14.9838C106.069 16.4246 106.32 17.748 106.818 18.961C107.316 20.1741 108.016 21.2307 108.909 22.1343C109.803 23.0343 110.845 23.7387 112.032 24.2403C113.219 24.7419 114.502 24.9945 115.879 24.9945C116.981 24.9945 118.069 24.8095 119.147 24.436C120.221 24.0624 121.196 23.4897 122.065 22.7213C122.934 21.9493 123.626 20.9781 124.142 19.8077C124.658 18.6373 124.916 17.2641 124.916 15.6882V13.6355H115.777V17.0151Z" fill="#2D3748"/>
<path d="M138.792 12.2055C138.198 11.5651 137.471 11.0671 136.612 10.7114C135.75 10.3556 134.761 10.1777 133.641 10.1777C132.299 10.1777 131.094 10.4979 130.027 11.1382C128.961 11.7786 128.113 12.6537 127.484 13.7636C126.855 14.8736 126.541 16.14 126.541 17.5594C126.541 18.9789 126.841 20.1777 127.445 21.3019C128.046 22.4296 128.9 23.3261 129.999 23.9913C131.101 24.6601 132.401 24.991 133.899 24.991C134.864 24.991 135.75 24.8487 136.559 24.5605C137.368 24.2759 138.071 23.8704 138.665 23.351C139.258 22.8316 139.693 22.2233 139.968 21.5296L136.87 20.0461C136.595 20.5299 136.213 20.9141 135.722 21.1916C135.231 21.4691 134.641 21.6078 133.952 21.6078C133.196 21.6078 132.55 21.4406 132.016 21.1027C131.483 20.7647 131.087 20.2916 130.829 19.6868C130.695 19.3737 130.61 19.0358 130.561 18.6729H140.431C140.498 18.4808 140.548 18.2532 140.572 17.9828C140.597 17.716 140.611 17.4421 140.611 17.1646C140.611 16.1756 140.456 15.2613 140.145 14.4218C139.834 13.5822 139.382 12.8387 138.788 12.1984L138.792 12.2055ZM131.91 13.7921C132.391 13.4613 132.97 13.2976 133.641 13.2976C134.312 13.2976 134.909 13.4648 135.383 13.8028C135.856 14.1407 136.188 14.5996 136.376 15.1795C136.443 15.3823 136.478 15.5957 136.499 15.8163H130.66C130.706 15.6171 130.759 15.425 130.826 15.2435C131.066 14.6032 131.43 14.1158 131.91 13.7885V13.7921Z" fill="#2D3748"/>
<path d="M153.548 11.6969C153.177 11.3234 152.746 11.0068 152.244 10.7613C151.446 10.37 150.527 10.1779 149.496 10.1779C148.153 10.1779 146.942 10.5088 145.857 11.1669C144.773 11.825 143.911 12.7144 143.275 13.8314C142.639 14.9485 142.321 16.2007 142.321 17.5881C142.321 18.9755 142.635 20.2064 143.264 21.3305C143.893 22.4582 144.748 23.3512 145.832 24.0093C146.917 24.6674 148.146 24.9983 149.524 24.9983C150.488 24.9983 151.382 24.8204 152.209 24.4646C152.845 24.1907 153.378 23.8136 153.809 23.3405V24.6852H157.423V5.00537H153.551V11.6969H153.548ZM153.095 19.6158C152.795 20.2064 152.375 20.6653 151.845 20.9926C151.311 21.3234 150.69 21.4871 149.987 21.4871C149.284 21.4871 148.648 21.3234 148.09 20.9926C147.532 20.6653 147.097 20.2028 146.786 19.6158C146.475 19.0253 146.32 18.3494 146.32 17.5881C146.32 16.8268 146.475 16.1544 146.786 15.5746C147.097 14.9947 147.532 14.5358 148.09 14.1978C148.648 13.8599 149.28 13.6927 149.987 13.6927C150.693 13.6927 151.311 13.8563 151.845 14.1872C152.378 14.518 152.795 14.9769 153.095 15.5639C153.396 16.1544 153.548 16.8303 153.548 17.5916C153.548 18.3529 153.396 19.0289 153.095 19.6194V19.6158Z" fill="#2D3748"/>
<path d="M169.579 10.8287C168.667 10.3947 167.618 10.1777 166.428 10.1777C165.428 10.1777 164.509 10.3343 163.665 10.6473C162.821 10.9604 162.1 11.4015 161.496 11.9742C160.892 12.547 160.454 13.23 160.178 14.0269L163.276 15.5104C163.517 14.8878 163.898 14.3826 164.424 14.002C164.947 13.6213 165.555 13.4292 166.244 13.4292C166.968 13.4292 167.54 13.6107 167.961 13.9735C168.381 14.3364 168.593 14.7882 168.593 15.3254V15.706L164.693 16.3392C163.573 16.5136 162.641 16.8088 161.892 17.225C161.143 17.6413 160.588 18.1571 160.228 18.7725C159.867 19.388 159.684 20.0959 159.684 20.8928C159.684 21.743 159.882 22.4759 160.277 23.0913C160.673 23.7067 161.242 24.1799 161.98 24.5072C162.718 24.8344 163.598 25.0016 164.612 25.0016C165.368 25.0016 166.057 24.902 166.678 24.7028C167.3 24.5036 167.858 24.2012 168.356 23.7921C168.526 23.6534 168.688 23.5004 168.847 23.3368V24.6886H172.461V15.3289C172.461 14.3079 172.207 13.4079 171.698 12.6395C171.189 11.8675 170.479 11.2663 169.568 10.8323L169.579 10.8287ZM168.197 20.5904C167.929 21.0671 167.554 21.4442 167.074 21.7217C166.594 21.9992 166.032 22.1379 165.396 22.1379C164.912 22.1379 164.509 22.0169 164.181 21.775C163.856 21.5331 163.69 21.1952 163.69 20.7612C163.69 20.2916 163.835 19.9323 164.128 19.6832C164.421 19.4307 164.841 19.2528 165.392 19.1496L168.593 18.5733V19.018C168.593 19.5908 168.459 20.1137 168.194 20.5904H168.197Z" fill="#2D3748"/>
<path d="M180.434 14.1797C180.961 13.8524 181.558 13.6852 182.229 13.6852C182.985 13.6852 183.653 13.8915 184.228 14.3077C184.804 14.724 185.214 15.286 185.454 15.9975L188.81 14.5425C188.535 13.6567 188.079 12.8919 187.443 12.2408C186.807 11.5898 186.041 11.0847 185.147 10.7183C184.253 10.3554 183.278 10.1704 182.229 10.1704C180.816 10.1704 179.544 10.4906 178.407 11.1309C177.273 11.7713 176.375 12.6535 175.722 13.7706C175.068 14.8876 174.74 16.1505 174.74 17.5521C174.74 18.9538 175.072 20.2202 175.732 21.3479C176.397 22.4756 177.29 23.3614 178.417 24.0125C179.544 24.6635 180.812 24.9872 182.225 24.9872C183.292 24.9872 184.274 24.8022 185.168 24.4287C186.062 24.0551 186.828 23.5393 187.464 22.8812C188.1 22.2231 188.549 21.476 188.807 20.6436L185.451 19.1601C185.21 19.8716 184.804 20.4337 184.235 20.8499C183.667 21.2661 182.996 21.4724 182.222 21.4724C181.551 21.4724 180.954 21.3088 180.427 20.978C179.901 20.6507 179.488 20.1882 179.187 19.6012C178.887 19.0107 178.735 18.3348 178.735 17.5735C178.735 16.8122 178.887 16.1363 179.187 15.5457C179.488 14.9552 179.901 14.4963 180.427 14.169L180.434 14.1797Z" fill="#2D3748"/>
<path d="M201.45 10.8538C200.648 10.402 199.715 10.1779 198.649 10.1779C197.666 10.1779 196.812 10.3807 196.08 10.7898C195.628 11.0424 195.254 11.3768 194.957 11.7965V5.00537H191.085V24.6852H194.957V16.3928C194.957 15.8378 195.063 15.3611 195.278 14.9627C195.494 14.5642 195.798 14.2512 196.193 14.0271C196.589 13.803 197.038 13.6891 197.536 13.6891C198.034 13.6891 198.504 13.803 198.892 14.0271C199.281 14.2512 199.581 14.5642 199.797 14.9627C200.012 15.3611 200.118 15.8378 200.118 16.3928V24.6852H203.99V15.5603C203.99 14.486 203.767 13.5468 203.319 12.7393C202.87 11.9317 202.248 11.3056 201.446 10.8538H201.45Z" fill="#2D3748"/>
<path d="M215.146 13.8702V10.4906H211.839V7.26758H207.968V8.30635C207.968 9.03563 207.773 9.57992 207.388 9.94278C207 10.3056 206.445 10.4871 205.724 10.4871H205.594V13.8667H207.968V19.5586C207.968 21.2235 208.438 22.5184 209.374 23.4469C210.31 24.3754 211.631 24.8378 213.337 24.8378C213.63 24.8378 213.941 24.82 214.266 24.7845C214.591 24.7489 214.885 24.7133 215.146 24.6813V21.38C214.973 21.3978 214.81 21.4156 214.655 21.4334C214.499 21.4511 214.362 21.4583 214.242 21.4583C213.708 21.4583 213.26 21.38 212.899 21.2235C212.539 21.0669 212.27 20.8286 212.097 20.5084C211.924 20.1882 211.839 19.7863 211.839 19.2989V13.8667H215.146V13.8702Z" fill="#2D3748"/>
</g>
</g>
<defs>
<clipPath id="clip0_326_166">
<rect width="218.182" height="30" fill="white"/>
</clipPath>
</defs>
</svg>
