<?xml version="1.0" encoding="UTF-8"?>
<svg width="512px" height="512px" viewBox="0 0 512 512" version="1.1" xmlns="http://www.w3.org/2000/svg" xmlns:xlink="http://www.w3.org/1999/xlink">
    <title>playstore</title>
    <defs>
        <linearGradient x1="10.7357682%" y1="8.85738829%" x2="75.3644004%" y2="72.9635836%" id="linearGradient-1">
            <stop stop-color="#00F175" offset="0%"></stop>
            <stop stop-color="#4DB08D" offset="100%"></stop>
        </linearGradient>
    </defs>
    <g id="Concept-A" stroke="none" stroke-width="1" fill="none" fill-rule="evenodd">
        <g id="Android-Export" transform="translate(-100.000000, -100.000000)">
            <g id="Play-Store" transform="translate(100.000000, 100.000000)">
                <g id="playstore" transform="translate(-128.000000, -128.000000)">
                    <g id="background" fill="url(#linearGradient-1)">
                        <rect id="Background" x="0" y="0" width="768" height="768"></rect>
                    </g>
                    <g id="foreground">
                        <g id="Material-Keylines" fill="#FF0000" fill-opacity="0.30116368">
                            <path d="M128,640 L640,640 L640,768 L0,768 L0,0 L640,0 L640,128 L128,128 L128,640 Z M640,0 L768,0 L768,768 L640,768 Z" id="margins"></path>
                        </g>
                        <path d="M384,198.666667 C447.226595,198.666667 498.54113,251.042557 498.666667,315.409584 L498.666667,372.997674 L476.06557,372.997674 L476.06557,388.889567 C476.06557,412.999137 456.850135,432.600141 433.214493,432.600141 L430.33063,432.600141 L409.578851,485.359672 L279.771818,485.359672 L310.209558,405.132926 C284.473839,383.005908 269.333333,350.167023 269.333333,315.633404 C269.333333,251.13873 320.773405,198.666667 384,198.666667 Z M384,221.049573 C332.967488,221.049573 291.27611,263.481333 291.27611,315.633404 C291.27611,345.914101 305.664162,374.596236 329.801255,392.374858 L336.666469,397.426887 L311.776852,462.97701 L394.720681,462.97701 L415.472113,410.217129 L433.214493,410.217129 C444.750292,410.217129 454.122759,400.656534 454.122759,388.889567 L454.122759,350.646487 L476.723855,350.646487 L476.723855,315.441408 C476.629963,263.417334 435.032512,221.049573 384,221.049573 Z M390.42601,247.75031 L390.42601,296.225095 C390.42601,299.902381 393.34117,302.876035 396.945911,302.876035 L410.581752,302.876035 L410.581752,302.908209 C415.754135,302.908209 418.857426,308.759693 416.067455,313.172087 L377.479751,384.98951 L377.479751,336.482551 C377.479751,332.805265 374.564243,329.831611 370.959502,329.831611 L357.323661,329.831611 C352.151278,329.831611 349.047987,323.980127 351.837958,319.567383 L390.42601,247.75031 Z M295.664812,507.197473 L295.539449,507.197473 C293.658627,512.377498 292.812281,517.685171 292.780331,522.929195 C292.686884,541.795091 303.971748,559.603789 322.372344,566.479248 C344.346453,574.7291 368.577437,564.496346 378.639834,543.489475 C379.329415,542.082559 379.925105,540.611645 380.457853,539.108906 L392.087543,507.197473 L295.664812,507.197473 Z" id="Combined-Shape" fill="#FAFAFA"></path>
                    </g>
                    <path d="M768,0 L768,768 L0,768 L0,0 L768,0 Z M640,128 L128,128 L128,640 L640,640 L640,128 Z" id="mask" fill="#FFFFFF"></path>
                </g>
            </g>
        </g>
    </g>
</svg>